<svg width="370" height="370" viewBox="0 0 370 370" fill="none" xmlns="http://www.w3.org/2000/svg"><path fill="#fff" d="M0 0h370v370H0z"/><path d="M269.979 119H99.029c-1.755.101-3.47.503-5.046 1.183a13.32 13.32 0 0 0-4.142 2.777 11.397 11.397 0 0 0-2.606 3.948 10.277 10.277 0 0 0-.672 4.517v127.186c-.228 3.083.956 6.119 3.293 8.442 2.338 2.323 5.636 3.742 9.173 3.947h170.95c3.533-.214 6.825-1.636 9.16-3.957 2.335-2.32 3.523-5.351 3.306-8.432V131.425c.228-3.087-.955-6.127-3.291-8.455-2.336-2.329-5.635-3.756-9.175-3.97Zm0 12.425v90.237l-24.516-22.243a8.608 8.608 0 0 0-2.963-1.821 9.623 9.623 0 0 0-3.564-.583 9.542 9.542 0 0 0-3.518.762 8.43 8.43 0 0 0-2.837 1.968l-24.932 24.742-48.742-58.286c-.783-1.016-1.841-1.849-3.08-2.424a9.573 9.573 0 0 0-4.026-.877 9.572 9.572 0 0 0-4.025.877c-1.24.575-2.297 1.408-3.08 2.424l-45.709 52.961v-87.737H269.98Zm-52.856 32.603c0-9.419 7.646-17.062 17.12-17.062 9.475 0 16.913 7.607 16.913 17.025 0 9.419-7.646 17.062-17.079 17.062-9.432 0-16.954-7.643-16.954-17.062v.037Z" fill="#A1AEC0"/></svg>