<svg width="60" height="60" viewBox="0 0 60 60" fill="none" xmlns="http://www.w3.org/2000/svg">
<path d="M33.5758 37.5H11.0008C6.45084 37.5 3.55084 32.625 5.75084 28.625L11.5758 18.025L17.0258 8.09998C19.3008 3.97498 25.2508 3.97498 27.5258 8.09998L33.0008 18.025L35.6258 22.8L38.8258 28.625C41.0258 32.625 38.1258 37.5 33.5758 37.5Z" fill="url(#paint0_linear_2154_69310)"/>
<path opacity="0.4" d="M55 38.75C55 47.725 47.725 55 38.75 55C29.775 55 22.5 47.725 22.5 38.75C22.5 38.325 22.525 37.925 22.55 37.5H33.575C38.125 37.5 41.025 32.625 38.825 28.625L35.625 22.8C36.625 22.6 37.675 22.5 38.75 22.5C47.725 22.5 55 29.775 55 38.75Z" fill="url(#paint1_linear_2154_69310)"/>
<defs>
<linearGradient id="paint0_linear_2154_69310" x1="5" y1="37.5" x2="40.0545" y2="36.976" gradientUnits="userSpaceOnUse">
<stop stop-color="#2F79F9"/>
<stop offset="1" stop-color="#3DAEFA"/>
</linearGradient>
<linearGradient id="paint1_linear_2154_69310" x1="22.5" y1="55" x2="55.45" y2="54.5372" gradientUnits="userSpaceOnUse">
<stop stop-color="#2F79F9"/>
<stop offset="1" stop-color="#3DAEFA"/>
</linearGradient>
</defs>
</svg>
