<svg width="61" height="60" viewBox="0 0 61 60" fill="none" xmlns="http://www.w3.org/2000/svg">
<path d="M49.2484 18.75L45.5234 22.475L38.0234 14.975L41.7484 11.25C42.7984 10.2 44.1484 9.70001 45.4984 9.70001C46.8484 9.70001 48.1984 10.2 49.2484 11.25C51.3234 13.325 51.3234 16.675 49.2484 18.75Z" fill="url(#paint0_linear_2154_69316)"/>
<path opacity="0.4" d="M45.5266 22.475L16.7516 51.25C14.6766 53.325 11.3266 53.325 9.25156 51.25C7.17656 49.175 7.17656 45.825 9.25156 43.75L38.0266 14.975L45.5266 22.475Z" fill="url(#paint1_linear_2154_69316)"/>
<path d="M25.3763 8.74998L26.4013 5.27498C26.5013 4.94998 26.4013 4.59998 26.1763 4.34998C25.9513 4.09998 25.5513 3.99998 25.2263 4.09998L21.7513 5.12498L18.2763 4.09998C17.9513 3.99998 17.6013 4.09998 17.3513 4.32498C17.1013 4.57498 17.0263 4.92498 17.1263 5.24998L18.1263 8.74998L17.1013 12.225C17.0013 12.55 17.1013 12.9 17.3263 13.15C17.5763 13.4 17.9263 13.475 18.2513 13.375L21.7513 12.375L25.2263 13.4C25.3263 13.425 25.4013 13.45 25.5013 13.45C25.7513 13.45 25.9763 13.35 26.1763 13.175C26.4263 12.925 26.5013 12.575 26.4013 12.25L25.3763 8.74998Z" fill="url(#paint2_linear_2154_69316)"/>
<path d="M15.3763 23.75L16.4013 20.275C16.5013 19.95 16.4013 19.6 16.1763 19.35C15.9263 19.1 15.5763 19.025 15.2513 19.125L11.7513 20.125L8.27626 19.1C7.95126 19 7.60126 19.1 7.35126 19.325C7.10126 19.575 7.02626 19.925 7.12626 20.25L8.12626 23.75L7.10126 27.225C7.00126 27.55 7.10126 27.9 7.32626 28.15C7.57626 28.4 7.92626 28.475 8.25126 28.375L11.7263 27.35L15.2013 28.375C15.2763 28.4 15.3763 28.4 15.4763 28.4C15.7263 28.4 15.9513 28.3 16.1513 28.125C16.4013 27.875 16.4763 27.525 16.3763 27.2L15.3763 23.75Z" fill="url(#paint3_linear_2154_69316)"/>
<path d="M52.8772 36.25L53.9022 32.775C54.0022 32.45 53.9022 32.1 53.6772 31.85C53.4272 31.6 53.0772 31.525 52.7522 31.625L49.2772 32.65L45.8022 31.625C45.4772 31.525 45.1272 31.625 44.8772 31.85C44.6272 32.1 44.5522 32.45 44.6522 32.775L45.6772 36.25L44.6522 39.725C44.5522 40.05 44.6522 40.4 44.8772 40.65C45.1272 40.9 45.4772 40.975 45.8022 40.875L49.2772 39.85L52.7522 40.875C52.8272 40.9 52.9272 40.9 53.0272 40.9C53.2772 40.9 53.5022 40.8 53.7022 40.625C53.9522 40.375 54.0272 40.025 53.9272 39.7L52.8772 36.25Z" fill="url(#paint4_linear_2154_69316)"/>
<defs>
<linearGradient id="paint0_linear_2154_69316" x1="38.0234" y1="22.475" x2="50.9817" y2="22.2929" gradientUnits="userSpaceOnUse">
<stop stop-color="#2F79F9"/>
<stop offset="1" stop-color="#3DAEFA"/>
</linearGradient>
<linearGradient id="paint1_linear_2154_69316" x1="7.69531" y1="52.8062" x2="46.0504" y2="52.2675" gradientUnits="userSpaceOnUse">
<stop stop-color="#2F79F9"/>
<stop offset="1" stop-color="#3DAEFA"/>
</linearGradient>
<linearGradient id="paint2_linear_2154_69316" x1="17.0625" y1="13.45" x2="26.574" y2="13.3165" gradientUnits="userSpaceOnUse">
<stop stop-color="#2F79F9"/>
<stop offset="1" stop-color="#3DAEFA"/>
</linearGradient>
<linearGradient id="paint3_linear_2154_69316" x1="7.0625" y1="28.4178" x2="16.5699" y2="28.284" gradientUnits="userSpaceOnUse">
<stop stop-color="#2F79F9"/>
<stop offset="1" stop-color="#3DAEFA"/>
</linearGradient>
<linearGradient id="paint4_linear_2154_69316" x1="44.6094" y1="40.9179" x2="54.0997" y2="40.7842" gradientUnits="userSpaceOnUse">
<stop stop-color="#2F79F9"/>
<stop offset="1" stop-color="#3DAEFA"/>
</linearGradient>
</defs>
</svg>
