<svg width="60" height="60" viewBox="0 0 60 60" fill="none" xmlns="http://www.w3.org/2000/svg">
<path d="M41.8716 8.89999V5C41.8716 3.975 41.0216 3.125 39.9966 3.125C38.9716 3.125 38.1216 3.975 38.1216 5V8.75H21.8716V5C21.8716 3.975 21.0216 3.125 19.9966 3.125C18.9716 3.125 18.1216 3.975 18.1216 5V8.89999C11.3716 9.52499 8.09667 13.55 7.59667 19.525C7.54667 20.25 8.14667 20.85 8.84667 20.85H51.1466C51.8716 20.85 52.4716 20.225 52.3966 19.525C51.8966 13.55 48.6216 9.52499 41.8716 8.89999Z" fill="url(#paint0_linear_2154_69893)"/>
<path opacity="0.4" d="M50 24.6C51.375 24.6 52.5 25.725 52.5 27.1V42.5C52.5 50 48.75 55 40 55H20C11.25 55 7.5 50 7.5 42.5V27.1C7.5 25.725 8.625 24.6 10 24.6H50Z" fill="url(#paint1_linear_2154_69893)"/>
<path d="M21.25 37.5C20.925 37.5 20.6 37.425 20.3 37.3C20 37.175 19.725 37 19.475 36.775C19.25 36.525 19.075 36.25 18.95 35.95C18.825 35.65 18.75 35.325 18.75 35C18.75 34.675 18.825 34.35 18.95 34.05C19.075 33.75 19.25 33.475 19.475 33.225C19.725 33 20 32.825 20.3 32.7C20.9 32.45 21.6 32.45 22.2 32.7C22.5 32.825 22.775 33 23.025 33.225C23.25 33.475 23.425 33.75 23.55 34.05C23.675 34.35 23.75 34.675 23.75 35C23.75 35.325 23.675 35.65 23.55 35.95C23.425 36.25 23.25 36.525 23.025 36.775C22.775 37 22.5 37.175 22.2 37.3C21.9 37.425 21.575 37.5 21.25 37.5Z" fill="url(#paint2_linear_2154_69893)"/>
<path d="M30 37.5001C29.675 37.5001 29.35 37.4251 29.05 37.3001C28.75 37.1751 28.475 37 28.225 36.775C27.775 36.3 27.5 35.6501 27.5 35.0001C27.5 34.3501 27.775 33.7001 28.225 33.2251C28.475 33.0001 28.75 32.825 29.05 32.7C29.65 32.425 30.35 32.425 30.95 32.7C31.25 32.825 31.525 33.0001 31.775 33.2251C32.225 33.7001 32.5 34.3501 32.5 35.0001C32.5 35.6501 32.225 36.3 31.775 36.775C31.525 37 31.25 37.1751 30.95 37.3001C30.65 37.4251 30.325 37.5001 30 37.5001Z" fill="url(#paint3_linear_2154_69893)"/>
<path d="M21.25 46.25C20.925 46.25 20.6 46.175 20.3 46.05C20 45.925 19.725 45.75 19.475 45.525C19.025 45.05 18.75 44.4 18.75 43.75C18.75 43.1 19.025 42.45 19.475 41.975C19.725 41.75 20 41.575 20.3 41.45C20.9 41.2 21.6 41.2 22.2 41.45C22.5 41.575 22.775 41.75 23.025 41.975C23.475 42.45 23.75 43.1 23.75 43.75C23.75 44.4 23.475 45.05 23.025 45.525C22.775 45.75 22.5 45.925 22.2 46.05C21.9 46.175 21.575 46.25 21.25 46.25Z" fill="url(#paint4_linear_2154_69893)"/>
<defs>
<linearGradient id="paint0_linear_2154_69893" x1="7.59375" y1="20.85" x2="52.9752" y2="19.2385" gradientUnits="userSpaceOnUse">
<stop stop-color="#2F79F9"/>
<stop offset="1" stop-color="#3DAEFA"/>
</linearGradient>
<linearGradient id="paint1_linear_2154_69893" x1="7.5" y1="55" x2="53.1124" y2="54.0516" gradientUnits="userSpaceOnUse">
<stop stop-color="#2F79F9"/>
<stop offset="1" stop-color="#3DAEFA"/>
</linearGradient>
<linearGradient id="paint2_linear_2154_69893" x1="18.75" y1="37.5" x2="23.8192" y2="37.4286" gradientUnits="userSpaceOnUse">
<stop stop-color="#2F79F9"/>
<stop offset="1" stop-color="#3DAEFA"/>
</linearGradient>
<linearGradient id="paint3_linear_2154_69893" x1="27.5" y1="37.5001" x2="32.5692" y2="37.4289" gradientUnits="userSpaceOnUse">
<stop stop-color="#2F79F9"/>
<stop offset="1" stop-color="#3DAEFA"/>
</linearGradient>
<linearGradient id="paint4_linear_2154_69893" x1="18.75" y1="46.25" x2="23.8192" y2="46.1786" gradientUnits="userSpaceOnUse">
<stop stop-color="#2F79F9"/>
<stop offset="1" stop-color="#3DAEFA"/>
</linearGradient>
</defs>
</svg>
