<svg width="1359" height="271" viewBox="0 0 1359 271" fill="none" xmlns="http://www.w3.org/2000/svg">
<g clip-path="url(#clip0_2154_69851)">
<rect x="739" y="141" width="40.513" height="4.77" transform="rotate(-171 739 141)" fill="#4BC8EF"/>
<rect x="596.906" y="31.6155" width="25.513" height="7.77" transform="rotate(102 596.906 31.6155)" fill="#480CA7"/>
<rect opacity="0.3" x="1056" y="88.9668" width="42.513" height="6.77" transform="rotate(-25 1056 88.9668)" fill="#FC9E1C" fill-opacity="0.45"/>
<rect x="335" y="86" width="11.513" height="7.77" transform="rotate(40 335 86)" fill="#03A3F5"/>
<rect opacity="0.4" x="833" y="157" width="31.513" height="5.77" transform="rotate(112 833 157)" fill="#FF21FB"/>
<rect x="355" y="250" width="10.513" height="7.77" transform="rotate(38 355 250)" fill="#BA3E03" fill-opacity="0.9"/>
<rect x="1231" y="66" width="39.513" height="3.77" transform="rotate(-104 1231 66)" fill="#FC9E1C" fill-opacity="0.85"/>
<circle cx="1196.9" cy="236.898" r="3.8975" fill="#F62584" fill-opacity="0.9"/>
<circle opacity="0.4" cx="689.398" cy="205.398" r="5.3975" fill="#480CA7" fill-opacity="0.85"/>
<circle opacity="0.4" cx="430.897" cy="114.897" r="8.8975" fill="#4BC8EF" fill-opacity="0.75"/>
<circle opacity="0.4" cx="291.897" cy="166.898" r="4.8975" fill="#DCBCFA" fill-opacity="0.65"/>
<circle cx="138.398" cy="170.398" r="4.3975" fill="#2AC769"/>
<path opacity="0.4" d="M158.318 123.352L169.26 129.67L158.318 135.988L158.318 123.352Z" fill="#BA3E03" fill-opacity="0.65"/>
<path opacity="0.3" d="M498.319 200.256L483.127 195.32L488.063 180.128L503.255 185.064L498.319 200.256Z" fill="#BA3E03" fill-opacity="0.65"/>
<path d="M939.114 227.927L951.087 237.974L945.232 252.465L929.641 251.375L925.86 236.21L939.114 227.927Z" fill="#4BC8EF" fill-opacity="0.85"/>
<path opacity="0.2" d="M1098.84 200.399L1092.49 218.845L1074.05 212.494L1080.4 194.047L1098.84 200.399Z" fill="#755FFE" fill-opacity="0.6"/>
<path opacity="0.3" d="M737.409 27.4135L743.202 22.1976L750.615 24.6064L752.236 32.2311L746.443 37.4469L739.029 35.0381L737.409 27.4135Z" fill="#F54721" fill-opacity="0.85"/>
<path opacity="0.4" d="M1288.23 179.667L1277.43 182.969L1269.16 175.266L1271.71 164.261L1282.51 160.958L1290.77 168.662L1288.23 179.667Z" fill="#480CA7" fill-opacity="0.65"/>
<path d="M197.294 71.1273L199.019 76.1387L204.319 76.0462L200.086 79.2359L201.811 84.2473L197.47 81.2072L193.237 84.3969L194.787 79.3284L190.445 76.2884L195.744 76.1959L197.294 71.1273Z" fill="#755FFE" fill-opacity="0.65"/>
<path opacity="0.4" d="M821.648 222.266L827.848 217.19L828.031 209.18L833.106 215.38L841.117 215.562L834.917 220.638L834.734 228.648L829.659 222.449L821.648 222.266Z" fill="#C9FCBE" fill-opacity="0.85"/>
<path opacity="0.4" d="M1301.46 25.1069L1296.47 21.7368L1291.72 25.4472L1293.38 19.654L1288.38 16.284L1294.41 16.0736L1296.07 10.2804L1298.13 15.9436L1304.15 15.7333L1299.4 19.4437L1301.46 25.1069Z" fill="#DCBCFA" fill-opacity="0.65"/>
<path opacity="0.4" d="M1323.03 239.011L1317.76 236.005L1312.05 238.05L1315.05 232.78L1313.01 227.068L1318.28 230.073L1323.99 228.029L1320.98 233.299L1323.03 239.011Z" fill="#9AF5FC" fill-opacity="0.85"/>
</g>
<defs>
<clipPath id="clip0_2154_69851">
<rect width="1359" height="271" fill="white"/>
</clipPath>
</defs>
</svg>
