<svg width="100" height="100" viewBox="0 0 100 100" fill="none" xmlns="http://www.w3.org/2000/svg">
<g opacity="0.5">
<path d="M91.75 70.0833L78.7083 39.5833C76.3333 34 72.7917 30.8333 68.75 30.625C64.75 30.4167 60.875 33.2083 57.9167 38.5417L50 52.75C48.3333 55.75 45.9583 57.5417 43.375 57.75C40.75 58 38.125 56.625 36 53.9167L35.0833 52.75C32.125 49.0417 28.4583 47.25 24.7083 47.625C20.9583 48 17.75 50.5833 15.625 54.7917L8.41666 69.1667C5.83333 74.375 6.08333 80.4167 9.12499 85.3333C12.1667 90.25 17.4583 93.2083 23.25 93.2083H76.4167C82 93.2083 87.2084 90.4167 90.2917 85.75C93.4584 81.0833 93.9584 75.2083 91.75 70.0833Z" fill="white"/>
<path d="M29.0417 34.9167C36.8197 34.9167 43.125 28.6113 43.125 20.8333C43.125 13.0553 36.8197 6.75 29.0417 6.75C21.2637 6.75 14.9583 13.0553 14.9583 20.8333C14.9583 28.6113 21.2637 34.9167 29.0417 34.9167Z" fill="white"/>
</g>
</svg>
