<svg width="230" height="48" viewBox="0 0 230 48" fill="none" xmlns="http://www.w3.org/2000/svg">
<path d="M95.4128 19.2348H109.431V14.0215H92.9033C92.5597 14.0215 92.2298 14.0431 91.9078 14.0882C89.7949 14.3573 88.1023 15.4667 86.8338 16.7391C86.125 17.444 85.5968 18.2766 85.2316 19.2368C85.0195 19.7827 84.8703 20.3678 84.7701 20.9981C84.6817 21.5656 84.6385 22.1704 84.6385 22.8086V34.6863C84.6385 35.189 84.67 35.6681 84.7407 36.1256C84.8231 36.7461 84.9704 37.3234 85.1726 37.8654C85.5241 38.7981 86.0543 39.6189 86.7573 40.3179C88.0729 41.6296 89.791 42.3306 91.9097 42.4189C92.0688 42.4268 92.2259 42.4327 92.3888 42.4327C92.811 42.4327 93.2391 42.4288 93.6711 42.4248C98.2914 42.3718 103.544 42.0321 109.433 41.4038V36.4752C104.826 36.7383 100.222 37.0034 95.617 37.2665C93.6043 37.3823 91.9097 35.782 91.9097 33.7674V22.7438C91.9097 20.8077 93.4786 19.2387 95.4147 19.2387L95.4128 19.2348Z" fill="white"/>
<path d="M116.694 36.5733V14.0215H111.432V36.8306C111.432 36.9582 111.436 37.0819 111.442 37.2056C111.461 37.6553 111.522 38.0774 111.621 38.478C111.85 39.4264 112.298 40.2354 112.964 40.9011C113.969 41.9064 115.214 42.417 116.694 42.4288H116.751C117.15 42.4288 117.556 42.4189 117.967 42.4032C119.104 42.3561 120.288 42.2383 121.513 42.0557V38.478H118.601C117.549 38.478 116.694 37.6239 116.694 36.5714V36.5733Z" fill="white"/>
<path d="M136.344 38.749L131.398 38.9218C129.964 38.9729 128.774 37.8242 128.774 36.3888V28.5423C128.774 27.1422 129.909 26.0073 131.309 26.0073H136.256C137.656 26.0073 138.791 27.1422 138.791 28.5423V36.216C138.791 37.5807 137.709 38.6999 136.346 38.749H136.344ZM144 26.9321C143.953 26.4805 143.867 26.0524 143.745 25.6597C143.488 24.8075 143.058 24.081 142.463 23.4821C141.542 22.5651 140.316 22.0428 138.789 21.925C138.557 21.9053 138.321 21.8955 138.076 21.8955H129.487C129.242 21.8955 129.004 21.9053 128.774 21.925C127.247 22.0428 126.018 22.5651 125.101 23.4821C124.506 24.081 124.076 24.8075 123.816 25.6597C123.695 26.0544 123.61 26.4805 123.561 26.9321C123.53 27.2326 123.514 27.5428 123.514 27.8688V36.4575C123.514 36.7815 123.53 37.0917 123.561 37.3902C123.608 37.8418 123.691 38.2699 123.816 38.6626C124.074 39.5187 124.504 40.2472 125.101 40.8422C126.018 41.7592 127.247 42.2815 128.774 42.3993C129.004 42.419 129.242 42.4288 129.487 42.4288H138.076C138.321 42.4288 138.557 42.419 138.789 42.3993C140.316 42.2815 141.542 41.7592 142.463 40.8422C143.058 40.2472 143.488 39.5187 143.745 38.6626C143.869 38.2679 143.951 37.8418 144 37.3902C144.032 37.0898 144.047 36.7815 144.047 36.4575V27.8688C144.047 27.5448 144.032 27.2326 144 26.9321Z" fill="white"/>
<path d="M160.948 21.8936V37.7535C158.672 38.0088 156.394 38.2621 154.119 38.5173C152.616 38.6862 151.303 37.51 151.303 35.998V21.8916H146.052V36.8286C146.052 37.2842 146.091 37.7142 146.164 38.1207C146.245 38.5625 146.368 38.9768 146.533 39.3617C146.785 39.939 147.134 40.4515 147.584 40.8992C148.532 41.8476 149.775 42.3542 151.303 42.417C151.421 42.4229 151.538 42.4268 151.656 42.4268H153.335C154.181 42.4268 155.222 42.2482 156.455 41.8869C157.553 41.5648 158.629 41.0818 159.677 40.4318C159.805 40.3533 159.929 40.2728 160.056 40.1903C160.161 40.8344 160.492 41.3881 160.952 41.7847C161.429 42.201 162.05 42.4465 162.719 42.4465H166.22V21.8916H160.952L160.948 21.8936Z" fill="white"/>
<path d="M180.867 37.9912L176.293 38.4997C174.791 38.6666 173.48 37.4924 173.48 35.9804V28.1928C173.48 26.7928 174.615 25.6578 176.015 25.6578H183.123V35.4719C183.123 36.7639 182.153 37.8478 180.869 37.9912H180.867ZM183.121 14.002V21.8936H174.19C173.945 21.8936 173.707 21.9093 173.478 21.9388C171.95 22.1293 170.721 22.9226 169.804 23.8396C169.291 24.3521 168.902 24.9568 168.645 25.6598C168.492 26.0545 168.384 26.4786 168.313 26.9322C168.251 27.3406 168.217 27.7687 168.217 28.2243V36.813C168.217 37.2686 168.256 37.7006 168.329 38.1051C168.41 38.5469 168.533 38.9612 168.698 39.3441C168.95 39.9233 169.299 40.4339 169.749 40.8816C170.697 41.8339 171.942 42.3425 173.476 42.4053C173.588 42.4092 173.701 42.4112 173.815 42.4112H175.496C176.341 42.4112 177.381 42.2325 178.612 41.8693C179.714 41.5472 180.79 41.0603 181.844 40.4123C181.968 40.3357 182.092 40.2571 182.218 40.1727C182.326 40.8187 182.653 41.3803 183.119 41.7809C183.596 42.1991 184.22 42.4466 184.896 42.4466H188.379V14H183.121V14.002Z" fill="white"/>
<path d="M204.911 35.7427C204.911 36.9916 204.007 38.0441 202.79 38.2424C202.739 38.2522 202.688 38.2581 202.637 38.264C201.237 38.4113 199.839 38.5546 198.439 38.6999C198.34 38.7097 198.244 38.7156 198.15 38.7137C196.781 38.6999 195.644 37.5865 195.644 36.1787V35.4776C195.644 34.0776 196.777 32.9446 198.177 32.9446H204.911V35.7427ZM209.861 26.3489C209.759 25.6872 209.517 25.0922 209.517 25.0922C209.266 24.4658 208.897 23.9121 208.416 23.431C207.467 22.4787 206.222 21.9701 204.689 21.9092C204.577 21.9033 204.463 21.8994 204.349 21.8994C204.041 21.8994 203.73 21.9033 203.416 21.9053C201.319 21.9269 199.077 22.029 196.697 22.2116C196.277 22.243 195.852 22.2784 195.424 22.3137C194.323 22.4099 193.194 22.5179 192.031 22.6456V26.0367C196.253 25.8109 200.471 25.5811 204.693 25.3553V29.5535H195.762C195.648 29.5535 195.536 29.5574 195.424 29.5594C193.887 29.6242 192.646 30.1328 191.694 31.0851C191.161 31.6172 190.771 32.2377 190.515 32.9485C190.372 33.3432 190.274 33.7693 190.219 34.221C190.18 34.5194 190.162 34.8277 190.162 35.1537V36.8345C190.162 38.5271 190.671 39.884 191.694 40.905C192.646 41.8574 193.887 42.362 195.424 42.4268C195.536 42.4307 195.648 42.4327 195.762 42.4327H197.07C197.916 42.4327 198.955 42.254 200.186 41.8907C201.288 41.5687 202.364 41.0817 203.416 40.4338C203.54 40.3572 203.664 40.2767 203.789 40.1942C203.897 40.8402 204.225 41.3979 204.691 41.7965C205.164 42.2069 205.782 42.4523 206.452 42.4523H209.951C210.039 33.5808 209.982 27.1147 209.865 26.3509L209.861 26.3489Z" fill="white"/>
<path d="M223.836 21.8936H229.365L223.392 32.1651L229.552 42.4524H224.022L220.663 36.0844L217.301 42.4524H211.453L217.613 32.1651L211.64 21.8936H217.488L220.663 28.2438L223.836 21.8936Z" fill="white"/>
<path fill-rule="evenodd" clip-rule="evenodd" d="M20.4487 15.6086C19.1331 15.2748 17.7822 15.1059 16.4057 15.1059C10.4855 15.1059 5.00312 18.3144 2.10093 23.4787C0.724454 25.9214 -0.0020752 28.6999 -0.0020752 31.5137C-0.0020752 40.5639 7.35943 47.9234 16.4057 47.9234H42.9103C42.9868 47.9234 43.0634 47.9234 43.14 47.9195V48H60.7024C67.7634 48 73.5089 42.2565 73.5089 35.1935C73.5089 30.4691 70.9445 26.2002 66.872 23.9715V23.9617C66.872 21.4876 66.4949 19.0488 65.7527 16.7102C62.5835 6.71352 53.4057 0 42.9103 0C32.8036 0 23.9164 6.23048 20.4468 15.6086H20.4487ZM27.663 23.2332C25.8741 22.3692 24.6803 20.2328 24.5703 17.7332C27.2408 9.86116 34.5611 4.59873 42.9122 4.59873C51.3949 4.59873 58.8134 10.0261 61.3739 18.1004C61.9748 19.9913 62.2772 21.9628 62.2772 23.9637C62.2772 24.1541 62.2752 24.3407 62.2693 24.5469C62.2634 24.81 62.2516 25.0279 62.2359 25.2341L62.2261 25.3441C61.7686 31.8907 58.0633 37.701 52.306 40.9036C49.4529 42.4902 46.2071 43.3306 42.9122 43.3306H16.4077C9.89639 43.3306 4.59666 38.0328 4.59666 31.5176C4.59666 29.4912 5.12094 27.4942 6.10666 25.7388C8.19985 22.0178 12.1447 19.7086 16.4057 19.7086C17.7508 19.7086 19.0624 19.9324 20.3132 20.3703C21.0594 23.514 22.97 26.0785 25.6581 27.3784C26.9089 27.9812 28.307 28.2914 29.7581 28.2914C30.1685 28.2914 30.5848 28.2679 31.003 28.2148C32.2617 28.0656 33.163 26.9208 33.0098 25.6602C32.8606 24.3996 31.7158 23.5022 30.4572 23.6534C30.2137 23.6829 29.9761 23.6966 29.7444 23.6966C28.9884 23.6966 28.2913 23.5454 27.663 23.2391V23.2332ZM66.5067 29.3773C68.0226 30.8873 68.9161 32.9628 68.9161 35.1935C68.9161 39.7195 65.2324 43.4032 60.7063 43.4032H57.2621C61.963 39.9866 65.2324 35.0148 66.5087 29.3773H66.5067Z" fill="url(#paint0_linear_2146_51691)"/>
<defs>
<linearGradient id="paint0_linear_2146_51691" x1="-0.000111604" y1="24.001" x2="73.5128" y2="24.001" gradientUnits="userSpaceOnUse">
<stop stop-color="#29CAEF"/>
<stop offset="0.501961" stop-color="#222DF4"/>
<stop offset="1" stop-color="#8B06F2"/>
</linearGradient>
</defs>
</svg>
