<?xml version="1.0" encoding="UTF-8"?>
<!DOCTYPE svg PUBLIC "-//W3C//DTD SVG 1.1//EN" "http://www.w3.org/Graphics/SVG/1.1/DTD/svg11.dtd">
<!-- Creator: CorelDRAW 2020 (64-Bit) -->
<svg xmlns="http://www.w3.org/2000/svg" xml:space="preserve" width="8.06951in" height="1.68736in" version="1.1" style="shape-rendering:geometricPrecision; text-rendering:geometricPrecision; image-rendering:optimizeQuality; fill-rule:evenodd; clip-rule:evenodd"
viewBox="0 0 1169.04 244.45"
 xmlns:xlink="http://www.w3.org/1999/xlink"
 xmlns:xodm="http://www.corel.com/coreldraw/odm/2003">
 <defs>
  <style type="text/css">
   <![CDATA[
    .fil0 {fill:#0A1044;fill-rule:nonzero}
    .fil1 {fill:url(#id0)}
   ]]>
  </style>
  <linearGradient id="id0" gradientUnits="userSpaceOnUse" x1="0" y1="122.23" x2="374.38" y2="122.23">
   <stop offset="0" style="stop-opacity:1; stop-color:#29CAEF"/>
   <stop offset="0.501961" style="stop-opacity:1; stop-color:#222DF4"/>
   <stop offset="1" style="stop-opacity:1; stop-color:#8B06F2"/>
  </linearGradient>
 </defs>
 <g id="Layer_x0020_1">
  <metadata id="CorelCorpID_0Corel-Layer"/>
  <path class="fil0" d="M485.91 126.21l71.39 0 0 -26.55 -84.17 0c-1.75,0 -3.43,0.11 -5.07,0.34 -10.76,1.37 -19.38,7.02 -25.84,13.5 -3.61,3.59 -6.3,7.83 -8.16,12.72 -1.08,2.78 -1.84,5.76 -2.35,8.97 -0.45,2.89 -0.67,5.97 -0.67,9.22l0 60.49c0,2.56 0.16,5 0.52,7.33 0.42,3.16 1.17,6.1 2.2,8.86 1.79,4.75 4.49,8.93 8.07,12.49 6.7,6.68 15.45,10.25 26.24,10.7 0.81,0.04 1.61,0.07 2.44,0.07 2.15,0 4.33,-0.02 6.53,-0.04 23.53,-0.27 50.28,-2 80.27,-5.2l0 -25.1c-23.46,1.34 -46.91,2.69 -70.36,4.03 -10.25,0.59 -18.88,-7.56 -18.88,-17.82l0 -56.14c0,-9.86 7.99,-17.85 17.85,-17.85z"/>
  <path class="fil0" d="M594.29 214.51l0 -114.85 -26.8 0 0 116.16c0,0.65 0.02,1.28 0.05,1.91 0.1,2.29 0.41,4.44 0.91,6.48 1.17,4.83 3.45,8.95 6.84,12.34 5.12,5.12 11.46,7.72 19,7.78l0.29 0c2.03,0 4.1,-0.05 6.19,-0.13 5.79,-0.24 11.82,-0.84 18.06,-1.77l0 -18.22 -14.83 0c-5.36,0 -9.71,-4.35 -9.71,-9.71z"/>
  <path class="fil0" d="M694.36 225.59l-25.19 0.88c-7.3,0.26 -13.36,-5.59 -13.36,-12.9l0 -39.96c0,-7.13 5.78,-12.91 12.91,-12.91l25.19 0c7.13,0 12.91,5.78 12.91,12.91l0 39.08c0,6.95 -5.51,12.65 -12.45,12.9zm38.99 -60.18c-0.24,-2.3 -0.68,-4.48 -1.3,-6.48 -1.31,-4.34 -3.5,-8.04 -6.53,-11.09 -4.69,-4.67 -10.93,-7.33 -18.71,-7.93 -1.18,-0.1 -2.38,-0.15 -3.63,-0.15l-43.74 0c-1.25,0 -2.46,0.05 -3.63,0.15 -7.78,0.6 -14.04,3.26 -18.71,7.93 -3.03,3.05 -5.22,6.75 -6.54,11.09 -0.62,2.01 -1.05,4.18 -1.3,6.48 -0.16,1.53 -0.24,3.11 -0.24,4.77l0 43.74c0,1.65 0.08,3.23 0.24,4.75 0.24,2.3 0.66,4.48 1.3,6.48 1.31,4.36 3.5,8.07 6.54,11.1 4.67,4.67 10.93,7.33 18.71,7.93 1.17,0.1 2.38,0.15 3.63,0.15l43.74 0c1.25,0 2.45,-0.05 3.63,-0.15 7.78,-0.6 14.02,-3.26 18.71,-7.93 3.03,-3.03 5.22,-6.74 6.53,-11.1 0.63,-2.01 1.05,-4.18 1.3,-6.48 0.16,-1.53 0.24,-3.1 0.24,-4.75l0 -43.74c0,-1.65 -0.08,-3.24 -0.24,-4.77z"/>
  <path class="fil0" d="M819.66 139.75l0 80.77c-11.59,1.3 -23.19,2.59 -34.78,3.89 -7.65,0.86 -14.34,-5.13 -14.34,-12.83l0 -71.84 -26.74 0 0 76.07c0,2.32 0.2,4.51 0.57,6.58 0.41,2.25 1.04,4.36 1.88,6.32 1.28,2.94 3.06,5.55 5.35,7.83 4.83,4.83 11.16,7.41 18.94,7.73 0.6,0.03 1.2,0.05 1.8,0.05l8.55 0c4.31,0 9.61,-0.91 15.89,-2.75 5.59,-1.64 11.07,-4.1 16.41,-7.41 0.65,-0.4 1.28,-0.81 1.93,-1.23 0.53,3.28 2.22,6.1 4.56,8.12 2.43,2.12 5.59,3.37 9,3.37l17.83 0 0 -104.68 -26.83 0z"/>
  <path class="fil0" d="M921.1 221.73l-23.29 2.59c-7.65,0.85 -14.33,-5.13 -14.33,-12.83l0 -39.66c0,-7.13 5.78,-12.91 12.91,-12.91l36.2 0 0 49.98c0,6.58 -4.94,12.1 -11.48,12.83zm11.48 -122.17l0 40.19 -45.48 0c-1.25,0 -2.46,0.08 -3.63,0.23 -7.78,0.97 -14.04,5.01 -18.71,9.68 -2.61,2.61 -4.59,5.69 -5.9,9.27 -0.78,2.01 -1.33,4.17 -1.69,6.48 -0.32,2.08 -0.49,4.26 -0.49,6.58l0 43.74c0,2.32 0.2,4.52 0.57,6.58 0.41,2.25 1.04,4.36 1.88,6.31 1.28,2.95 3.06,5.55 5.35,7.83 4.83,4.85 11.17,7.44 18.98,7.76 0.57,0.02 1.15,0.03 1.73,0.03l8.56 0c4.3,0 9.6,-0.91 15.87,-2.76 5.61,-1.64 11.09,-4.12 16.46,-7.42 0.63,-0.39 1.26,-0.79 1.9,-1.22 0.55,3.29 2.22,6.15 4.59,8.19 2.43,2.13 5.61,3.39 9.05,3.39l17.74 0 0 -144.87 -26.78 0z"/>
  <path class="fil0" d="M1043.55 210.28c0,6.36 -4.6,11.72 -10.8,12.73 -0.26,0.05 -0.52,0.08 -0.78,0.11 -7.13,0.75 -14.25,1.48 -21.38,2.22 -0.5,0.05 -0.99,0.08 -1.47,0.07 -6.97,-0.07 -12.76,-5.74 -12.76,-12.91l0 -3.57c0,-7.13 5.77,-12.9 12.9,-12.9l34.29 0 0 14.25zm25.21 -47.84c-0.52,-3.37 -1.75,-6.4 -1.75,-6.4 -1.28,-3.19 -3.16,-6.01 -5.61,-8.46 -4.83,-4.85 -11.17,-7.44 -18.98,-7.75 -0.57,-0.03 -1.15,-0.05 -1.73,-0.05 -1.57,0 -3.15,0.02 -4.75,0.03 -10.68,0.11 -22.1,0.63 -34.22,1.56 -2.14,0.16 -4.3,0.34 -6.48,0.52 -5.61,0.49 -11.36,1.04 -17.28,1.69l0 17.27c21.5,-1.15 42.98,-2.32 64.48,-3.47l0 21.38 -45.48 0c-0.58,0 -1.15,0.02 -1.72,0.03 -7.83,0.33 -14.15,2.92 -19,7.77 -2.71,2.71 -4.7,5.87 -6,9.49 -0.73,2.01 -1.23,4.18 -1.51,6.48 -0.2,1.52 -0.29,3.09 -0.29,4.75l0 8.56c0,8.62 2.59,15.53 7.8,20.73 4.85,4.85 11.17,7.42 19,7.75 0.57,0.02 1.14,0.03 1.72,0.03l6.66 0c4.31,0 9.6,-0.91 15.87,-2.76 5.61,-1.64 11.09,-4.12 16.45,-7.42 0.63,-0.39 1.26,-0.8 1.9,-1.22 0.55,3.29 2.22,6.13 4.59,8.16 2.41,2.09 5.56,3.34 8.97,3.34l17.82 0c0.45,-45.18 0.16,-78.11 -0.44,-82z"/>
  <polygon class="fil0" points="1139.93,139.75 1168.09,139.75 1137.67,192.06 1169.04,244.45 1140.88,244.45 1123.77,212.02 1106.65,244.45 1076.87,244.45 1108.24,192.06 1077.82,139.75 1107.6,139.75 1123.77,172.09 "/>
  <path class="fil1" d="M104.14 79.49c-6.7,-1.7 -13.58,-2.56 -20.59,-2.56l0 0c-30.15,0 -58.07,16.34 -72.85,42.64l0 0c-7.01,12.44 -10.71,26.59 -10.71,40.92l0 0c0,46.09 37.49,83.57 83.56,83.57l0 0 134.98 0c0.39,0 0.78,0 1.17,-0.02l0 0 0 0.41 89.44 0c35.96,0 65.22,-29.25 65.22,-65.22 0,-24.06 -13.06,-45.8 -33.8,-57.15l0 0 0 -0.05c0,-12.6 -1.92,-25.02 -5.7,-36.93l0 0c-16.14,-50.91 -62.88,-85.1 -116.33,-85.1l0 0c-51.47,0 -96.73,31.73 -114.4,79.49zm36.74 38.83c-9.11,-4.4 -15.19,-15.28 -15.75,-28.01l0 0c13.6,-40.09 50.88,-66.89 93.41,-66.89l0 0c43.2,0 80.98,27.64 94.02,68.76l0 0c3.06,9.63 4.6,19.67 4.6,29.86l0 0c0,0.97 -0.01,1.92 -0.04,2.97l0 0c-0.03,1.34 -0.09,2.45 -0.17,3.5l0 0 -0.05 0.56c-2.33,33.34 -21.2,62.93 -50.52,79.24l0 0c-14.53,8.08 -31.06,12.36 -47.84,12.36l0 0 -134.98 0c-33.16,0 -60.15,-26.98 -60.15,-60.16l0 0c0,-10.32 2.67,-20.49 7.69,-29.43l0 0c10.66,-18.95 30.75,-30.71 52.45,-30.71l0 0c6.85,0 13.53,1.14 19.9,3.37l0 0c3.8,16.01 13.53,29.07 27.22,35.69l0 0c6.37,3.07 13.49,4.65 20.88,4.65l0 0c2.09,0 4.21,-0.12 6.34,-0.39l0 0c6.41,-0.76 11,-6.59 10.22,-13.01l0 0c-0.76,-6.42 -6.59,-10.99 -13,-10.22l0 0c-1.24,0.15 -2.45,0.22 -3.63,0.22l0 0c-3.85,0 -7.4,-0.77 -10.6,-2.33zm197.82 31.29c7.72,7.69 12.27,18.26 12.27,29.62l0 0c0,23.05 -18.76,41.81 -41.81,41.81l0 0 -17.54 0c23.94,-17.4 40.59,-42.72 47.09,-71.43l0 0z"/>
 </g>
</svg>
