<?xml version="1.0" encoding="UTF-8"?>
<!DOCTYPE svg PUBLIC "-//W3C//DTD SVG 1.1//EN" "http://www.w3.org/Graphics/SVG/1.1/DTD/svg11.dtd">
<!-- Creator: CorelDRAW 2020 (64-Bit) -->
<svg xmlns="http://www.w3.org/2000/svg" xml:space="preserve" width="8.73748in" height="1.82703in" version="1.1" style="shape-rendering:geometricPrecision; text-rendering:geometricPrecision; image-rendering:optimizeQuality; fill-rule:evenodd; clip-rule:evenodd"
viewBox="0 0 8737.49 1827.03"
 xmlns:xlink="http://www.w3.org/1999/xlink"
 xmlns:xodm="http://www.corel.com/coreldraw/odm/2003">
 <defs>
  <style type="text/css">
   <![CDATA[
    .fil0 {fill:white;fill-rule:nonzero}
   ]]>
  </style>
 </defs>
 <g id="Layer_x0020_1">
  <metadata id="CorelCorpID_0Corel-Layer"/>
  <path class="fil0" d="M3631.69 943.31l533.54 0 0 -198.47 -629.1 0c-13.08,0 -25.65,0.85 -37.89,2.51 -80.46,10.24 -144.82,52.47 -193.1,100.92 -26.98,26.82 -47.11,58.5 -61.01,95.04 -8.06,20.79 -13.75,43.08 -17.6,67.06 -3.36,21.62 -5.04,44.58 -5.04,68.89l0 452.09c0,19.11 1.18,37.37 3.86,54.8 3.18,23.64 8.72,45.6 16.43,66.22 13.4,35.53 33.53,66.71 60.33,93.36 50.13,49.94 115.5,76.6 196.13,79.96 6.04,0.33 12.07,0.5 18.28,0.5 16.08,0 32.35,-0.17 48.78,-0.33 175.83,-2.01 375.81,-14.92 599.93,-38.89l0 -187.57c-175.31,10.04 -350.61,20.08 -525.91,30.12 -76.58,4.39 -141.08,-56.51 -141.08,-133.22l0 -419.54c0,-73.69 59.75,-133.44 133.44,-133.44z"/>
  <path class="fil0" d="M4441.74 1603.22l0 -858.37 -200.31 0 0 868.19c0,4.85 0.13,9.57 0.37,14.31 0.72,17.08 3.03,33.19 6.78,48.46 8.72,36.11 25.82,66.89 51.14,92.22 38.29,38.29 85.67,57.67 142.02,58.15l2.18 0c15.15,0 30.65,-0.36 46.29,-0.96 43.25,-1.82 88.33,-6.31 134.98,-13.21l0 -136.21 -110.87 0c-40.08,0 -72.58,-32.5 -72.58,-72.58z"/>
  <path class="fil0" d="M5189.7 1686.09l-188.29 6.57c-54.56,1.92 -99.82,-41.81 -99.82,-96.4l0 -298.64c0,-53.27 43.18,-96.46 96.46,-96.46l188.3 0c53.26,0 96.46,43.19 96.46,96.46l0 292.07c0,51.96 -41.17,94.58 -93.1,96.4zm291.46 -449.76c-1.82,-17.2 -5.1,-33.44 -9.7,-48.47 -9.82,-32.47 -26.18,-60.11 -48.83,-82.89 -35.02,-34.89 -81.67,-54.76 -139.83,-59.25 -8.85,-0.72 -17.82,-1.08 -27.15,-1.08l-326.92 0c-9.33,0 -18.42,0.36 -27.14,1.08 -58.17,4.49 -104.93,24.36 -139.83,59.25 -22.67,22.78 -39.01,50.42 -48.83,82.89 -4.61,15.03 -7.88,31.27 -9.7,48.47 -1.21,11.39 -1.82,23.26 -1.82,35.63l0 326.92c0,12.36 0.61,24.11 1.82,35.5 1.82,17.21 4.97,33.44 9.7,48.47 9.82,32.6 26.17,60.35 48.83,83 34.91,34.9 81.67,54.78 139.83,59.25 8.72,0.74 17.81,1.1 27.14,1.1l326.92 0c9.33,0 18.31,-0.36 27.15,-1.1 58.17,-4.47 104.82,-24.35 139.83,-59.25 22.65,-22.65 39.01,-50.4 48.83,-83 4.72,-15.03 7.88,-31.26 9.7,-48.47 1.21,-11.39 1.82,-23.14 1.82,-35.5l0 -326.92c0,-12.36 -0.61,-24.24 -1.82,-35.63z"/>
  <path class="fil0" d="M6126.16 1044.5l0 603.68c-86.65,9.7 -173.31,19.39 -259.97,29.09 -57.15,6.4 -107.18,-38.33 -107.18,-95.86l0 -536.9 -199.82 0 0 568.54c0,17.32 1.46,33.68 4.25,49.2 3.03,16.85 7.75,32.59 14.06,47.26 9.57,21.93 22.91,41.43 39.99,58.51 36.11,36.11 83.36,55.37 141.53,57.81 4.48,0.24 8.97,0.36 13.44,0.36l63.86 0c32.24,0 71.86,-6.78 118.75,-20.59 41.81,-12.24 82.76,-30.65 122.63,-55.37 4.85,-3.03 9.57,-6.06 14.41,-9.21 4,24.47 16.61,45.56 34.06,60.71 18.18,15.87 41.8,25.19 67.25,25.19l133.29 0 0 -782.4 -200.54 0z"/>
  <path class="fil0" d="M6884.33 1657.24l-174.11 19.37c-57.14,6.36 -107.13,-38.37 -107.13,-95.87l0 -296.43c0,-53.28 43.18,-96.46 96.46,-96.46l270.57 0 0 373.51c0,49.15 -36.94,90.44 -85.79,95.88zm85.79 -913.13l0 300.39 -339.89 0c-9.33,0 -18.42,0.59 -27.14,1.69 -58.17,7.26 -104.93,37.44 -139.83,72.33 -19.51,19.51 -34.29,42.54 -44.11,69.32 -5.82,15.01 -9.93,31.14 -12.6,48.46 -2.43,15.52 -3.64,31.88 -3.64,49.21l0 326.92c0,17.33 1.46,33.81 4.24,49.19 3.04,16.85 7.76,32.6 14.07,47.14 9.57,22.06 22.89,41.44 39.98,58.53 36.11,36.22 83.49,55.61 141.89,58.04 4.24,0.11 8.6,0.24 12.96,0.24l63.99 0c32.11,0 71.74,-6.78 118.63,-20.59 41.93,-12.24 82.89,-30.78 123,-55.5 4.72,-2.91 9.44,-5.93 14.17,-9.09 4.13,24.6 16.6,45.92 34.29,61.2 18.18,15.87 41.93,25.32 67.61,25.32l132.57 0 0 -1082.79 -200.18 0z"/>
  <path class="fil0" d="M7799.55 1571.6c0,47.5 -34.42,87.61 -80.71,95.13 -1.93,0.36 -3.87,0.59 -5.8,0.85 -53.32,5.57 -106.52,11.03 -159.83,16.6 -3.75,0.36 -7.39,0.61 -11.03,0.48 -52.1,-0.48 -95.36,-42.9 -95.36,-96.46l0 -26.65c0,-53.32 43.14,-96.46 96.46,-96.46l256.28 0 0 106.52zm188.42 -357.58c-3.87,-25.2 -13.08,-47.86 -13.08,-47.86 -9.57,-23.87 -23.63,-44.96 -41.92,-63.25 -36.11,-36.24 -83.5,-55.63 -141.9,-57.92 -4.24,-0.25 -8.6,-0.36 -12.96,-0.36 -11.76,0 -23.51,0.11 -35.5,0.24 -79.86,0.85 -165.17,4.72 -255.8,11.64 -15.99,1.21 -32.11,2.54 -48.47,3.88 -41.92,3.62 -84.93,7.75 -129.17,12.59l0 129.06c160.68,-8.61 321.22,-17.33 481.91,-25.94l0 159.83 -339.89 0c-4.36,0 -8.6,0.13 -12.85,0.24 -58.53,2.43 -105.78,21.82 -142.02,58.04 -20.22,20.24 -35.14,43.87 -44.83,70.89 -5.44,15.03 -9.2,31.26 -11.26,48.47 -1.46,11.39 -2.18,23.14 -2.18,35.5l0 63.99c0,64.46 19.39,116.08 58.28,154.97 36.24,36.24 83.49,55.5 142.02,57.93 4.25,0.11 8.48,0.24 12.85,0.24l49.8 0c32.24,0 71.74,-6.79 118.63,-20.6 41.93,-12.24 82.89,-30.78 123,-55.5 4.72,-2.9 9.44,-5.93 14.17,-9.08 4.12,24.6 16.59,45.81 34.29,60.94 18.06,15.64 41.57,24.96 67.01,24.96l133.17 0c3.39,-337.71 1.21,-583.81 -3.28,-612.89z"/>
  <polygon class="fil0" points="8519.9,1044.46 8730.39,1044.46 8503,1435.43 8737.49,1827.03 8527.02,1827.03 8399.11,1584.65 8271.21,1827.03 8048.6,1827.03 8283.1,1435.43 8055.71,1044.46 8278.31,1044.46 8399.11,1286.21 "/>
  <path class="fil0" d="M2310.64 1652.06l-131.11 0c178.93,-130.06 303.4,-319.26 351.93,-533.89 57.74,57.5 91.68,136.47 91.68,221.39 0,172.29 -140.21,312.5 -312.5,312.5zm-319.72 -95.31c-108.6,60.43 -232.13,92.39 -357.53,92.39l-1008.87 0c-247.86,0 -449.56,-201.68 -449.56,-449.67 0,-77.11 19.96,-153.17 57.51,-220 79.67,-141.61 229.79,-229.56 392.04,-229.56 51.21,0 101.14,8.52 148.74,25.2 28.33,119.68 101.12,217.3 203.43,266.76 47.58,22.98 100.78,34.76 156.07,34.76 15.62,0 31.48,-0.93 47.36,-2.92 47.93,-5.71 82.24,-49.22 76.41,-97.28 -5.72,-47.94 -49.24,-82.12 -97.17,-76.4 -39.32,4.67 -75.12,-0.58 -106.39,-15.75 -68.13,-32.91 -113.5,-114.2 -117.7,-209.38 101.6,-299.67 380.26,-499.96 698.13,-499.96 322.87,0 605.28,206.58 702.68,513.95 22.86,71.97 34.42,146.98 34.42,223.15 0,7.22 -0.13,14.35 -0.36,22.15 -0.22,10.04 -0.7,18.32 -1.28,26.14l-0.35 4.19c-17.39,249.15 -158.4,470.32 -377.58,592.21zm554.53 -644.35l0 -0.35c0,-94.14 -14.35,-186.99 -42.57,-275.99 -120.61,-380.5 -469.97,-636.07 -869.48,-636.07 -384.69,0 -722.97,237.14 -855.02,594.07 -50.04,-12.71 -101.48,-19.13 -153.86,-19.13 -225.36,0 -434.03,122.13 -544.5,318.68 -52.38,92.96 -80.02,198.76 -80.02,305.85 0,344.46 280.18,624.64 624.52,624.64l1008.87 0c2.92,0 5.83,0 8.75,-0.13l0 3.04 668.5 0c268.75,0 487.47,-218.6 487.47,-487.47 0,-179.86 -97.64,-342.35 -252.67,-427.15z"/>
 </g>
</svg>
