<svg width="562" height="260" viewBox="0 0 562 260" fill="none" xmlns="http://www.w3.org/2000/svg">
<path d="M279.574 195.495C234.944 195.495 198.734 204.945 198.734 216.454C198.734 228.056 234.944 237.506 279.574 237.506C319.339 237.506 352.461 230.02 359.198 220.196C360.04 218.98 360.414 217.763 360.414 216.547C360.414 204.945 324.205 195.495 279.574 195.495ZM279.574 219.448C253.844 219.448 233.073 216.36 233.073 212.524C233.073 212.524 233.073 212.43 233.073 212.243C233.073 212.15 233.073 212.15 233.166 212.056C233.166 212.056 233.166 211.962 233.26 211.962C235.037 208.407 255.154 205.6 279.574 205.6C303.153 205.6 322.614 208.22 325.608 211.588C325.889 211.869 325.982 212.15 325.982 212.43V212.524C326.076 216.36 305.211 219.448 279.574 219.448Z" fill="#7A97F4"/>
<path d="M182.64 202.138H104.794C102.829 202.138 100.864 202.793 99.2737 204.01L69.333 227.494C67.9295 228.617 68.6781 230.863 70.4558 230.863H152.699C154.758 230.863 156.816 230.021 158.313 228.617L183.482 204.29C184.324 203.542 183.763 202.138 182.64 202.138Z" fill="#7A97F4"/>
<path d="M491.499 202.138H413.56C411.595 202.138 409.63 202.793 408.039 204.01L378.099 227.494C376.695 228.617 377.444 230.863 379.221 230.863H461.465C463.523 230.863 465.582 230.021 467.079 228.617L492.247 204.29C493.183 203.542 492.622 202.138 491.499 202.138Z" fill="#7A97F4"/>
<path d="M279.574 191.659C234.944 191.659 198.734 201.109 198.734 212.618C198.734 224.22 234.944 233.67 279.574 233.67C319.339 233.67 352.461 226.185 359.198 216.36C360.04 215.144 360.414 213.928 360.414 212.711C360.414 201.109 324.205 191.659 279.574 191.659ZM279.574 215.612C253.844 215.612 233.073 212.524 233.073 208.688C233.073 208.688 233.073 208.594 233.073 208.407C233.073 208.314 233.073 208.314 233.166 208.22C233.166 208.22 233.166 208.127 233.26 208.127C235.037 204.571 255.154 201.764 279.574 201.764C303.153 201.764 322.614 204.384 325.608 207.752C325.889 208.033 325.982 208.314 325.982 208.594V208.688C326.076 212.524 305.211 215.612 279.574 215.612Z" fill="#5B68E8"/>
<path d="M359.198 216.36C352.461 226.185 319.433 233.67 279.574 233.67C234.944 233.67 198.734 224.22 198.734 212.618C198.734 212.618 212.769 229.553 276.767 229.553C331.783 229.646 353.958 219.261 359.198 216.36Z" fill="#B0B7F2"/>
<path d="M325.606 207.752C322.518 204.384 303.057 201.764 279.572 201.764C255.058 201.764 235.036 204.571 233.258 208.127C234.1 206.068 239.714 198.957 279.572 198.957C316.25 198.957 324.015 205.32 325.606 207.752Z" fill="#B0B7F2"/>
<path opacity="0.25" d="M183.298 202.138L166.924 84.9955C166.737 83.7791 165.708 82.8435 164.398 82.8435H142.316C140.819 82.8435 139.603 84.1534 139.79 85.744L145.311 130C145.498 131.778 144.188 133.275 142.41 133.275H117.148C115.557 133.275 114.247 132.058 114.154 130.468L112.095 85.3697C112.002 83.9663 110.879 82.9371 109.569 82.9371H88.8911C87.394 82.9371 86.2713 84.1534 86.3648 85.5569L89.1718 162.654C89.2653 165.087 91.3237 167.052 93.7564 167.052H149.989L154.386 202.325H183.298V202.138Z" fill="#999FFF"/>
<path opacity="0.25" d="M492.15 202.138L475.776 84.9955C475.589 83.7791 474.559 82.8435 473.249 82.8435H451.168C449.671 82.8435 448.455 84.1534 448.642 85.744L454.162 130C454.349 131.778 453.04 133.275 451.262 133.275H425.999C424.409 133.275 423.099 132.058 423.005 130.468L420.947 85.3697C420.853 83.9663 419.731 82.9371 418.421 82.9371H397.836C396.339 82.9371 395.217 84.1534 395.31 85.5569L398.117 162.654C398.211 165.087 400.269 167.052 402.702 167.052H458.934L463.332 202.325H492.15V202.138Z" fill="#999FFF"/>
<path d="M166.265 86.2116L153.915 226.184C153.728 228.804 151.482 230.863 148.862 230.863H130.337C127.249 230.863 124.91 228.149 125.284 225.155L133.05 159.566L77.5661 160.502C74.4785 160.502 72.1394 157.789 72.7007 154.795L72.8879 153.578L85.6127 85.3696C85.9869 83.4983 87.5775 82.0948 89.5424 82.0948H107.226C109.659 82.0948 111.53 84.3403 111.156 86.773L103.577 129.813C103.296 131.59 104.606 133.088 106.384 133.088H132.863L139.038 85.276C139.319 83.4047 140.909 82.0012 142.781 82.0012H162.523C164.675 82.0948 166.453 84.0596 166.265 86.2116Z" fill="#5B68E8"/>
<path d="M133.424 153.578L132.956 159.566L77.4724 160.502C74.3847 160.502 72.0456 157.789 72.607 154.794L72.7941 153.578H133.424Z" fill="#B0B7F2"/>
<path d="M166.265 86.2116L153.914 226.184C153.727 228.804 151.481 230.862 148.862 230.862H146.055L160.744 82.0947H162.522C164.674 82.0947 166.452 84.0596 166.265 86.2116Z" fill="#B0B7F2"/>
<path d="M103.481 129.906C103.2 131.684 104.51 133.181 106.288 133.181H100.861C98.8963 133.181 97.3057 131.403 97.6799 129.438L106.007 82.1882H107.224C109.656 82.1882 111.527 84.4338 111.153 86.8665L103.481 129.906Z" fill="#B0B7F2"/>
<path d="M475.023 86.2116L462.673 226.184C462.485 228.804 460.24 230.863 457.62 230.863H439.094C436.007 230.863 433.668 228.149 434.042 225.155L441.808 159.566L386.324 160.502C383.236 160.502 380.897 157.789 381.459 154.795L381.646 153.578L394.37 85.3696C394.745 83.4983 396.335 82.0948 398.3 82.0948H415.984C418.417 82.0948 420.288 84.3403 419.914 86.773L412.335 129.813C412.054 131.59 413.364 133.088 415.142 133.088H441.621L447.796 85.276C448.077 83.4047 449.667 82.0012 451.538 82.0012H471.281C473.526 82.0948 475.304 84.0596 475.023 86.2116Z" fill="#5B68E8"/>
<path d="M442.276 153.578L441.808 159.566L386.324 160.502C383.236 160.502 380.897 157.789 381.459 154.794L381.646 153.578H442.276Z" fill="#B0B7F2"/>
<path d="M475.022 86.2116L462.672 226.184C462.485 228.804 460.239 230.862 457.619 230.862H454.812L469.502 82.0947H471.28C473.525 82.0947 475.303 84.0596 475.022 86.2116Z" fill="#B0B7F2"/>
<path d="M412.333 129.906C412.052 131.684 413.362 133.181 415.139 133.181H409.713C407.748 133.181 406.157 131.403 406.531 129.438L414.859 82.1882H416.075C418.508 82.1882 420.379 84.4338 420.005 86.8665L412.333 129.906Z" fill="#B0B7F2"/>
<path opacity="0.28" d="M242.617 114.749L223.436 212.056C222.407 217.296 225.775 222.255 230.36 222.255H331.971C336.462 222.255 339.83 217.483 338.988 212.43L323.27 115.123C322.615 111.194 319.714 108.387 316.252 108.387H249.634C246.266 108.293 243.365 111.006 242.617 114.749Z" fill="#5B68E8"/>
<path d="M329.254 120.831L338.516 151.614C338.704 152.268 339.358 152.643 340.013 152.362C340.481 152.175 340.856 151.614 340.668 151.052L334.587 119.521C334.212 117.837 332.341 116.901 330.751 117.556C329.534 118.117 328.879 119.427 329.254 120.831Z" fill="#FEC272"/>
<path d="M311.76 131.965L317.748 155.73C317.842 156.198 318.31 156.385 318.684 156.292C319.058 156.198 319.245 155.824 319.152 155.45L315.315 131.216C315.128 130.094 313.912 129.345 312.789 129.813C312.041 130.187 311.573 131.029 311.76 131.965Z" fill="#FEC272"/>
<path d="M233.724 123.825L225.958 147.497C225.865 147.965 225.303 148.152 224.929 147.965C224.555 147.777 224.368 147.403 224.461 147.029L230.075 122.796C230.356 121.673 231.666 121.018 232.695 121.486C233.631 121.954 234.005 122.889 233.724 123.825Z" fill="#FEC272"/>
<path d="M249.157 131.123L239.052 175.098C238.959 175.566 238.491 175.753 238.117 175.66C237.742 175.566 237.555 175.192 237.649 174.818L245.602 130.374C245.789 129.252 247.005 128.503 248.128 128.971C248.97 129.252 249.438 130.187 249.157 131.123Z" fill="#FEC272"/>
<path d="M270.589 136.269L265.724 168.174C265.63 168.642 265.162 168.923 264.788 168.736C264.414 168.642 264.227 168.268 264.227 167.894L266.846 135.707C267.034 134.585 268.156 133.836 269.279 134.21C270.215 134.398 270.776 135.333 270.589 136.269Z" fill="#FEC272"/>
<path d="M295.664 135.614L296.881 186.232C296.881 186.7 296.507 186.981 296.039 186.981C295.664 186.887 295.384 186.607 295.384 186.232L291.922 135.614C291.922 134.398 292.951 133.555 294.074 133.743C295.01 133.93 295.664 134.772 295.664 135.614Z" fill="#FEC272"/>
<path d="M198.452 89.6737C197.423 88.4574 196.674 87.241 196.113 86.0247L193.961 71.6157L198.92 76.2004L198.452 89.6737Z" fill="#738DE0"/>
<path d="M338.051 94.5388C338.051 94.5388 334.963 100.995 328.226 108.199C319.805 117.181 305.584 127.38 284.438 127.38C269.561 127.38 258.521 122.421 250.661 116.433C238.311 107.076 233.445 95.1002 233.445 95.1002L338.051 94.5388Z" fill="#273D7A"/>
<path d="M338.051 94.5388C338.051 94.5388 334.963 100.995 328.226 108.199C321.022 111.006 312.133 113.345 301.093 114.842C279.386 117.743 262.45 117.556 250.661 116.433C238.311 107.076 233.445 95.1002 233.445 95.1002L338.051 94.5388Z" fill="#072359"/>
<path d="M370.984 71.0542C370.984 71.0542 370.423 76.9488 368.551 84.2468C368.271 85.2761 367.803 86.4924 367.054 87.6152C365.089 90.7964 361.347 94.2582 355.265 97.533C354.236 98.0944 353.02 98.6558 351.803 99.2172C350.868 99.685 349.932 100.059 348.903 100.527C347.499 101.088 346.096 101.65 344.599 102.211C339.359 104.083 333.184 105.673 325.886 107.17C325.324 107.264 324.857 107.357 324.295 107.451C322.892 107.732 321.208 107.919 319.43 108.106C311.945 108.948 302.027 109.509 291.454 109.696C289.489 109.696 287.524 109.79 285.559 109.79C275.548 109.884 265.443 109.603 256.648 109.135C254.777 109.041 252.905 108.948 251.221 108.761C246.075 108.387 241.584 107.825 238.309 107.17C233.537 106.235 229.233 105.205 225.397 104.083C223.807 103.615 222.31 103.147 220.813 102.679C209.211 98.8429 202.193 94.1647 198.544 89.8607C197.983 89.2058 197.515 88.6444 197.141 87.9894C196.767 87.428 196.392 86.7731 196.205 86.2117C195.924 85.5567 195.644 84.9953 195.55 84.3404C194.708 80.8785 194.053 77.3231 193.773 74.6097C193.398 71.522 193.305 69.4636 193.305 69.4636L282.191 76.1067L371.077 71.1478L370.984 71.0542Z" fill="#99ADF9"/>
<path d="M370.89 70.8671C370.89 71.522 370.422 72.3641 369.58 73.3933C367.241 76.1067 361.627 80.13 352.083 83.779C350.867 84.2468 349.557 84.7146 348.154 85.1825C347.499 85.3696 346.844 85.6503 346.189 85.8374C344.785 86.3052 343.288 86.7731 341.698 87.1473C336.365 88.6444 330.189 90.0478 323.078 91.077C321.394 91.3577 319.617 91.6384 317.745 91.8256C309.886 92.8548 301.091 93.5097 291.266 93.6969C289.395 93.6969 287.43 93.7904 285.465 93.7904H285.372C275.36 93.7904 266.098 93.3226 257.77 92.5741C255.899 92.3869 254.028 92.1998 252.25 92.0127C243.081 90.9835 234.941 89.4864 227.923 87.8023C226.333 87.428 224.742 86.9602 223.245 86.5859C209.304 82.7498 200.135 77.978 195.924 74.0483C195.082 73.2998 194.427 72.4577 193.959 71.8027C193.398 70.9606 193.117 70.2121 193.117 69.4636C193.117 62.8205 219.315 48.6923 285.84 48.6923C352.364 48.5987 370.89 66.2824 370.89 70.8671Z" fill="#273D7A"/>
<path d="M247.48 56.271L198.826 76.2003C196.955 74.984 194.335 72.3642 193.867 71.6156L245.889 55.429L247.48 56.271Z" fill="#072359"/>
<path d="M370.891 70.9606C370.891 71.522 370.423 72.3641 369.581 73.3933L319.617 56.271L321.208 55.5225L370.891 70.9606Z" fill="#072359"/>
<path d="M255.709 61.417L227.92 87.7087C226.33 87.3344 224.739 86.8666 223.242 86.4924L254.025 61.3235L255.709 61.417Z" fill="#072359"/>
<path d="M270.963 64.5047L257.77 92.5741C255.899 92.387 254.028 92.1998 252.25 92.0127L269.279 64.4111L270.963 64.5047Z" fill="#072359"/>
<path d="M323.175 91.1706C321.491 91.4513 319.619 91.732 317.842 91.9191L304.93 64.5047L306.707 64.4111L323.175 91.1706Z" fill="#072359"/>
<path d="M291.262 93.7905C289.39 93.7905 287.426 93.8841 285.461 93.8841H285.367L287.613 66.2825L289.39 66.189L291.262 93.7905Z" fill="#072359"/>
<path d="M351.988 83.779C350.772 84.2468 349.462 84.7146 348.058 85.1825L314.469 61.417L316.246 61.3235L351.988 83.779Z" fill="#072359"/>
<path d="M291.363 109.509C289.398 109.509 287.434 109.603 285.469 109.603V93.7903L291.27 93.6968L291.363 109.509Z" fill="#738DE0"/>
<path d="M324.105 107.264C322.608 107.544 321.017 107.731 319.239 107.919L317.742 91.8254L323.075 91.0769L324.105 107.264Z" fill="#738DE0"/>
<path d="M355.174 97.4395C354.144 98.0009 352.928 98.5623 351.712 99.1237L348.156 85.089L351.992 83.7791L355.174 97.4395Z" fill="#738DE0"/>
<path d="M257.768 92.5741L256.645 108.948C254.774 108.854 252.903 108.761 251.219 108.574L252.342 92.0127L257.768 92.5741Z" fill="#738DE0"/>
<path d="M227.923 87.7088L225.303 103.895C223.713 103.428 222.216 102.96 220.719 102.492L223.151 86.4924L227.923 87.7088Z" fill="#738DE0"/>
<path d="M198.919 76.3875L197.048 87.8959C196.674 87.3345 196.299 86.6796 196.112 86.1182C195.832 85.4633 195.551 84.9019 195.457 84.2469C194.615 80.785 193.96 77.2295 193.68 74.5162L193.96 71.7092C193.96 71.7092 195.551 73.5805 196.206 74.2355C196.767 74.7969 198.919 76.3875 198.919 76.3875Z" fill="#738DE0"/>
<path d="M281.44 77.4167C308.983 77.4167 331.31 71.0912 331.31 63.2884C331.31 55.4856 308.983 49.1602 281.44 49.1602C253.898 49.1602 231.57 55.4856 231.57 63.2884C231.57 71.0912 253.898 77.4167 281.44 77.4167Z" fill="#072359"/>
<path d="M327.01 61.0429C327.01 61.0429 323.361 65.1597 314.379 68.7152C307.736 71.335 298.192 73.5805 285.093 73.5805C277.888 73.5805 271.62 72.9256 266.38 71.8964C248.883 68.528 241.305 61.23 241.305 61.23C241.305 61.23 245.141 32.7864 269.093 23.1492C273.959 21.1844 279.76 19.968 286.496 19.968C319.431 19.968 327.01 61.0429 327.01 61.0429Z" fill="#99ADF9"/>
<path d="M266.38 71.8963C248.883 68.528 241.305 61.23 241.305 61.23C241.305 61.23 245.141 32.7863 269.093 23.1492C264.415 27.0789 259.83 34.9383 259.082 47.7567C258.333 57.3003 260.579 65.2532 266.38 71.8963Z" fill="#7A97F4"/>
<path d="M327.01 61.0429C327.01 61.0429 323.361 65.1597 314.379 68.7152C312.975 63.4756 310.823 58.7973 310.823 58.7973C310.823 58.7973 302.028 60.6686 298.098 52.3414C294.169 44.0141 303.619 38.026 303.619 38.026C303.619 38.026 301.373 30.8215 289.771 26.1433C278.169 21.4651 268.906 23.1492 268.906 23.1492C273.772 21.1844 279.573 19.968 286.309 19.968C319.431 19.968 327.01 61.0429 327.01 61.0429Z" fill="#C2D1FF"/>
<path d="M289.308 43.4528C290.703 43.4528 291.834 42.3636 291.834 41.0201C291.834 39.6765 290.703 38.5874 289.308 38.5874C287.912 38.5874 286.781 39.6765 286.781 41.0201C286.781 42.3636 287.912 43.4528 289.308 43.4528Z" fill="#C2D1FF"/>
<path d="M280.512 45.7919C281.597 45.7919 282.477 44.9541 282.477 43.9206C282.477 42.8871 281.597 42.0493 280.512 42.0493C279.427 42.0493 278.547 42.8871 278.547 43.9206C278.547 44.9541 279.427 45.7919 280.512 45.7919Z" fill="#C2D1FF"/>
<path d="M286.406 58.4232C288.525 58.4232 290.243 56.7475 290.243 54.6806C290.243 52.6136 288.525 50.938 286.406 50.938C284.288 50.938 282.57 52.6136 282.57 54.6806C282.57 56.7475 284.288 58.4232 286.406 58.4232Z" fill="#C2D1FF"/>
</svg>
