<svg width="28" height="28" viewBox="0 0 28 28" fill="none" xmlns="http://www.w3.org/2000/svg">
<path d="M25.153 12.5301L23.5664 10.6868C23.263 10.3368 23.018 9.68348 23.018 9.21682V7.23348C23.018 5.99682 22.003 4.98182 20.7664 4.98182H18.783C18.328 4.98182 17.663 4.73682 17.313 4.43348L15.4697 2.84682C14.6647 2.15848 13.3464 2.15848 12.5297 2.84682L10.698 4.44515C10.348 4.73682 9.68303 4.98182 9.22803 4.98182H7.2097C5.97303 4.98182 4.95803 5.99682 4.95803 7.23348V9.22848C4.95803 9.68348 4.71303 10.3368 4.42137 10.6868L2.84637 12.5418C2.1697 13.3468 2.1697 14.6535 2.84637 15.4585L4.42137 17.3135C4.71303 17.6635 4.95803 18.3168 4.95803 18.7718V20.7668C4.95803 22.0035 5.97303 23.0185 7.2097 23.0185H9.22803C9.68303 23.0185 10.348 23.2635 10.698 23.5668L12.5414 25.1535C13.3464 25.8418 14.6647 25.8418 15.4814 25.1535L17.3247 23.5668C17.6747 23.2635 18.328 23.0185 18.7947 23.0185H20.778C22.0147 23.0185 23.0297 22.0035 23.0297 20.7668V18.7835C23.0297 18.3285 23.2747 17.6635 23.578 17.3135L25.1647 15.4701C25.8414 14.6651 25.8414 13.3351 25.153 12.5301ZM18.853 11.7951L13.218 17.4301C13.0547 17.5935 12.833 17.6868 12.5997 17.6868C12.3664 17.6868 12.1447 17.5935 11.9814 17.4301L9.15803 14.6068C8.8197 14.2685 8.8197 13.7085 9.15803 13.3701C9.49637 13.0318 10.0564 13.0318 10.3947 13.3701L12.5997 15.5751L17.6164 10.5585C17.9547 10.2201 18.5147 10.2201 18.853 10.5585C19.1914 10.8968 19.1914 11.4568 18.853 11.7951Z" fill="#0F94F2"/>
</svg>
