<svg width="10" height="18" viewBox="0 0 10 18" fill="none" xmlns="http://www.w3.org/2000/svg">
<path d="M0.583108 6.66595L4.55807 4.89928C4.73307 4.82428 4.93309 4.82428 5.09976 4.89928L9.07478 6.66595C9.42478 6.82428 9.74974 6.39928 9.50808 6.09928L5.34141 1.00762C5.05808 0.657617 4.59142 0.657617 4.30808 1.00762L0.141416 6.09928C-0.0919169 6.39928 0.233108 6.82428 0.583108 6.66595Z" fill="white"/>
<path d="M0.584773 11.5004L4.56808 13.2671C4.74308 13.3421 4.9431 13.3421 5.10977 13.2671L9.09308 11.5004C9.44308 11.3421 9.76809 11.7671 9.52643 12.0671L5.35976 17.1588C5.07642 17.5088 4.60977 17.5088 4.32643 17.1588L0.159765 12.0671C-0.0902352 11.7671 0.22644 11.3421 0.584773 11.5004Z" fill="white"/>
<path d="M4.65144 6.99169L1.20977 8.70835C0.901432 8.85835 0.901432 9.30002 1.20977 9.45002L4.65144 11.1667C4.7681 11.225 4.90973 11.225 5.0264 11.1667L8.46807 9.45002C8.7764 9.30002 8.7764 8.85835 8.46807 8.70835L5.0264 6.99169C4.9014 6.93335 4.7681 6.93335 4.65144 6.99169Z" fill="white"/>
</svg>
