<svg width="22" height="18" viewBox="0 0 22 18" fill="none" xmlns="http://www.w3.org/2000/svg">
<path d="M18.5078 2.11166C17.1268 1.47802 15.6459 1.01118 14.0976 0.743797C14.0694 0.738637 14.0412 0.751533 14.0267 0.777326C13.8362 1.11606 13.6253 1.55797 13.4776 1.90531C11.8122 1.65599 10.1554 1.65599 8.52422 1.90531C8.37646 1.55025 8.15784 1.11606 7.96654 0.777326C7.95201 0.752394 7.92384 0.739498 7.89564 0.743797C6.34816 1.01032 4.86729 1.47716 3.48547 2.11166C3.47351 2.11682 3.46326 2.12542 3.45645 2.13659C0.64755 6.33303 -0.121926 10.4263 0.255553 14.4689C0.257261 14.4886 0.268363 14.5076 0.283736 14.5196C2.13697 15.8806 3.93214 16.7068 5.69398 17.2544C5.72217 17.263 5.75205 17.2527 5.76999 17.2295C6.18676 16.6604 6.55826 16.0603 6.87679 15.4292C6.89559 15.3922 6.87765 15.3484 6.83923 15.3338C6.24995 15.1102 5.68885 14.8377 5.14911 14.5282C5.10641 14.5033 5.103 14.4422 5.14227 14.413C5.25585 14.3278 5.36946 14.2393 5.47792 14.1499C5.49754 14.1335 5.52488 14.1301 5.54795 14.1404C9.09384 15.7593 12.9327 15.7593 16.4367 14.1404C16.4598 14.1292 16.4872 14.1327 16.5076 14.149C16.6161 14.2384 16.7297 14.3278 16.8441 14.413C16.8834 14.4422 16.8808 14.5033 16.8382 14.5282C16.2984 14.8437 15.7373 15.1102 15.1472 15.3329C15.1088 15.3475 15.0917 15.3922 15.1105 15.4292C15.4358 16.0594 15.8073 16.6595 16.2164 17.2286C16.2335 17.2527 16.2642 17.263 16.2924 17.2544C18.0628 16.7068 19.858 15.8806 21.7112 14.5196C21.7274 14.5076 21.7377 14.4895 21.7394 14.4697C22.1912 9.79609 20.9827 5.73637 18.5359 2.13745C18.53 2.12542 18.5197 2.11682 18.5078 2.11166ZM7.40631 12.0074C6.33876 12.0074 5.45912 11.0273 5.45912 9.82362C5.45912 8.61996 6.3217 7.63986 7.40631 7.63986C8.49944 7.63986 9.37057 8.62857 9.35348 9.82362C9.35348 11.0273 8.4909 12.0074 7.40631 12.0074ZM14.6057 12.0074C13.5382 12.0074 12.6586 11.0273 12.6586 9.82362C12.6586 8.61996 13.5211 7.63986 14.6057 7.63986C15.6989 7.63986 16.57 8.62857 16.5529 9.82362C16.5529 11.0273 15.6989 12.0074 14.6057 12.0074Z" fill="white"/>
</svg>
