<svg width="9" height="17" viewBox="0 0 9 17" fill="none" xmlns="http://www.w3.org/2000/svg">
<path d="M0.615031 6.32509L4.1925 4.73509C4.35 4.66759 4.53002 4.66759 4.68002 4.73509L8.25753 6.32509C8.57253 6.46759 8.865 6.08509 8.6475 5.81509L4.8975 1.23259C4.6425 0.917588 4.22251 0.917588 3.96751 1.23259L0.217509 5.81509C0.0075092 6.08509 0.300031 6.46759 0.615031 6.32509Z" fill="#2B2E32"/>
<path d="M0.615358 10.675L4.20033 12.265C4.35783 12.3325 4.53785 12.3325 4.68785 12.265L8.27283 10.675C8.58783 10.5325 8.88034 10.915 8.66284 11.185L4.91284 15.7675C4.65784 16.0825 4.23785 16.0825 3.98285 15.7675L0.232851 11.185C0.00785084 10.915 0.292858 10.5325 0.615358 10.675Z" fill="#2B2E32"/>
<path d="M4.27438 6.6175L1.17687 8.1625C0.899375 8.2975 0.899375 8.695 1.17687 8.83L4.27438 10.375C4.37938 10.4275 4.50684 10.4275 4.61184 10.375L7.70935 8.83C7.98685 8.695 7.98685 8.2975 7.70935 8.1625L4.61184 6.6175C4.49934 6.565 4.37938 6.565 4.27438 6.6175Z" fill="#2B2E32"/>
</svg>
