<svg width="19" height="20" viewBox="0 0 19 20" fill="none" xmlns="http://www.w3.org/2000/svg">
<path d="M5.65529 7.58331L9.1226 5.81664C9.27525 5.74164 9.44973 5.74164 9.59511 5.81664L13.0625 7.58331C13.3678 7.74164 13.6512 7.31664 13.4404 7.01664L9.8059 1.92498C9.55875 1.57498 9.15169 1.57498 8.90454 1.92498L5.27001 7.01664C5.06648 7.31664 5.34999 7.74164 5.65529 7.58331Z" fill="#2B2E32"/>
<path d="M5.65384 12.4167L9.12842 14.1834C9.28107 14.2584 9.45555 14.2584 9.60093 14.1834L13.0755 12.4167C13.3808 12.2584 13.6643 12.6834 13.4535 12.9834L9.81899 18.075C9.57184 18.425 9.16478 18.425 8.91764 18.075L5.28311 12.9834C5.06503 12.6834 5.34127 12.2584 5.65384 12.4167Z" fill="#2B2E32"/>
<path d="M9.20189 7.90825L6.19976 9.62492C5.93081 9.77492 5.93081 10.2166 6.19976 10.3666L9.20189 12.0833C9.30366 12.1416 9.42719 12.1416 9.52896 12.0833L12.5311 10.3666C12.8 10.2166 12.8 9.77492 12.5311 9.62492L9.52896 7.90825C9.41992 7.84992 9.30366 7.84992 9.20189 7.90825Z" fill="#2B2E32"/>
</svg>
