<svg width="43" height="40" viewBox="0 0 43 40" fill="none" xmlns="http://www.w3.org/2000/svg">
<g clip-path="url(#clip0_690_7446)">
<path d="M42.0033 0L23.5524 13.5466L26.9835 5.56313L42.0033 0Z" fill="#E17726"/>
<path d="M1.03986 0.0161133L16.0195 5.5643L19.2775 13.6524L1.03986 0.0161133Z" fill="#E27625"/>
<path d="M34.578 28.8096L42.733 28.9636L39.883 38.5706L29.9321 35.852L34.578 28.8096Z" fill="#E27625"/>
<path d="M8.42177 28.8096L13.0505 35.8521L3.11629 38.5708L0.283569 28.9636L8.42177 28.8096Z" fill="#E27625"/>
<path d="M18.8344 11.5918L19.1678 22.2724L9.19531 21.8222L12.0319 17.5759L12.0678 17.535L18.8344 11.5918Z" fill="#E27625"/>
<path d="M24.0623 11.4727L30.9321 17.5354L30.9677 17.576L33.8043 21.8223L23.8342 22.2724L24.0623 11.4727Z" fill="#E27625"/>
<path d="M13.3426 28.8408L18.7878 33.0506L12.4625 36.0809L13.3426 28.8408Z" fill="#E27625"/>
<path d="M29.6584 28.8398L30.5202 36.0806L24.2126 33.05L29.6584 28.8398Z" fill="#E27625"/>
<path d="M24.3517 32.6538L30.7525 35.7291L24.7985 38.5369L24.8603 36.6812L24.3517 32.6538Z" fill="#D5BFB2"/>
<path d="M18.6464 32.6548L18.1577 36.6504L18.1978 38.5343L12.2299 35.7287L18.6464 32.6548Z" fill="#D5BFB2"/>
<path d="M16.7981 23.6665L18.4707 27.1545L12.776 25.4992L16.7981 23.6665Z" fill="#233447"/>
<path d="M26.2017 23.667L30.2427 25.4993L24.5295 27.1541L26.2017 23.667Z" fill="#233447"/>
<path d="M13.7778 28.8052L12.8573 36.3118L7.92358 28.9693L13.7778 28.8052Z" fill="#CC6228"/>
<path d="M29.2225 28.8052L35.077 28.9693L30.1247 36.312L29.2225 28.8052Z" fill="#CC6228"/>
<path d="M33.9485 21.3979L29.6879 25.7065L26.4031 24.2169L24.8303 27.4976L23.7993 21.8561L33.9485 21.3979Z" fill="#CC6228"/>
<path d="M9.04938 21.3979L19.2004 21.8562L18.1694 27.4977L16.5963 24.2174L13.3287 25.7066L9.04938 21.3979Z" fill="#CC6228"/>
<path d="M8.76221 20.5137L13.5826 25.3672L13.7497 30.1586L8.76221 20.5137Z" fill="#E27525"/>
<path d="M34.2427 20.5049L29.2463 30.1671L29.4344 25.367L34.2427 20.5049Z" fill="#E27525"/>
<path d="M18.9648 20.8091L19.1588 22.0207L19.6382 25.0392L19.33 34.3101L17.8729 26.8627L17.8724 26.7857L18.9648 20.8091Z" fill="#E27525"/>
<path d="M24.0326 20.7925L25.1279 26.7858L25.1275 26.8628L23.6667 34.3289L23.6089 32.4614L23.3809 24.9844L24.0326 20.7925Z" fill="#E27525"/>
<path d="M29.8629 25.1743L29.6998 29.3373L24.6147 33.2685L23.5867 32.5478L24.739 26.6586L29.8629 25.1743Z" fill="#F5841F"/>
<path d="M13.1548 25.1743L18.261 26.6586L19.4133 32.5478L18.3853 33.2684L13.2999 29.3369L13.1548 25.1743Z" fill="#F5841F"/>
<path d="M11.257 34.8096L17.7627 37.8682L17.7352 36.5621L18.2795 36.088H24.7184L25.2825 36.5605L25.2409 37.8657L31.7054 34.8173L28.5598 37.3966L24.756 39.9889H18.2274L14.4261 37.386L11.257 34.8096Z" fill="#C0AC9D"/>
<path d="M23.8857 32.2466L24.8056 32.8913L25.3446 37.1588L24.5645 36.5052H18.4378L17.6725 37.1719L18.1939 32.8916L19.1141 32.2466H23.8857Z" fill="#161616"/>
<path d="M40.7852 0.375L43 6.96791L41.6168 13.634L42.6018 14.3879L41.269 15.3969L42.2706 16.1645L40.9443 17.3631L41.7586 17.9482L39.5975 20.4525L30.7338 17.8918L30.657 17.8509L24.2697 12.5045L40.7852 0.375Z" fill="#763E1A"/>
<path d="M2.21484 0.375L18.7304 12.5045L12.3431 17.8509L12.2663 17.8918L3.4025 20.4525L1.24149 17.9482L2.05514 17.3635L0.729406 16.1645L1.72916 15.3977L0.376474 14.3859L1.39856 13.6315L0 6.96816L2.21484 0.375Z" fill="#763E1A"/>
<path d="M30.3001 17.3315L39.6918 20.0447L42.743 29.3756L34.6933 29.3756L29.1469 29.445L33.1805 21.6437L30.3001 17.3315Z" fill="#F5841F"/>
<path d="M12.6998 17.3315L9.81897 21.6437L13.8531 29.445L8.30936 29.3756H0.273926L3.30801 20.0447L12.6998 17.3315Z" fill="#F5841F"/>
<path d="M27.4434 5.51855L24.8165 12.5584L24.2591 22.0685L24.0457 25.0493L24.0288 32.6639H18.971L18.9546 25.0636L18.7406 22.0659L18.1829 12.5584L15.5565 5.51855H27.4434Z" fill="#F5841F"/>
</g>
<defs>
<clipPath id="clip0_690_7446">
<rect width="43" height="40" fill="white"/>
</clipPath>
</defs>
</svg>
