<svg width="20" height="20" viewBox="0 0 20 20" fill="none" xmlns="http://www.w3.org/2000/svg">
<path d="M14.1391 0.960043L5.10914 3.96004C-0.960859 5.99004 -0.960859 9.30004 5.10914 11.32L7.78914 12.21L8.67914 14.89C10.6991 20.96 14.0191 20.96 16.0391 14.89L19.0491 5.87004C20.3891 1.82004 18.1891 -0.389957 14.1391 0.960043ZM14.4591 6.34004L10.6591 10.16C10.5091 10.31 10.3191 10.38 10.1291 10.38C9.93914 10.38 9.74914 10.31 9.59914 10.16C9.30914 9.87004 9.30914 9.39004 9.59914 9.10004L13.3991 5.28004C13.6891 4.99004 14.1691 4.99004 14.4591 5.28004C14.7491 5.57004 14.7491 6.05004 14.4591 6.34004Z" fill="white"/>
</svg>
