<svg width="22" height="19" viewBox="0 0 22 19" fill="none" xmlns="http://www.w3.org/2000/svg">
<path d="M19.5735 4.95045C19.5735 5.15279 19.5735 5.33827 19.5735 5.50689C19.5735 7.02445 19.2868 8.52515 18.7135 10.009C18.1739 11.4591 17.3814 12.7912 16.336 14.0052C15.3243 15.2193 13.9922 16.2141 12.3397 16.9898C10.721 17.7317 8.93365 18.1027 6.97767 18.1027C4.51585 18.1027 2.25636 17.4451 0.199219 16.1298C0.536455 16.1636 0.890554 16.1804 1.26151 16.1804C3.31866 16.1804 5.1566 15.5565 6.77533 14.3088C5.79735 14.275 4.92053 13.9715 4.14489 13.3982C3.40297 12.8249 2.89711 12.0999 2.62732 11.223C2.89711 11.2905 3.1669 11.3242 3.43669 11.3242C3.84137 11.3242 4.2292 11.2568 4.60016 11.1219C3.58845 10.9195 2.74535 10.4137 2.07088 9.60431C1.39641 8.79494 1.05917 7.86754 1.05917 6.82211C1.05917 6.78839 1.05917 6.77152 1.05917 6.77152C1.69992 7.10876 2.37439 7.29424 3.08259 7.32796C1.76737 6.41743 1.10976 5.18651 1.10976 3.63523C1.10976 2.82586 1.3121 2.08394 1.71678 1.40947C2.82966 2.75841 4.16175 3.83757 5.71304 4.64693C7.29805 5.4563 9.00109 5.91157 10.8222 6.01274C10.7547 5.67551 10.721 5.33827 10.721 5.00103C10.721 3.78698 11.1425 2.75841 11.9856 1.91532C12.8625 1.03851 13.9079 0.600098 15.1219 0.600098C16.4034 0.600098 17.4826 1.05537 18.3594 1.96591C19.3711 1.76356 20.3154 1.40947 21.1922 0.90361C20.855 1.94904 20.1973 2.75841 19.2194 3.33171C20.1299 3.23054 20.9899 3.01134 21.7992 2.6741C21.1922 3.55092 20.4503 4.3097 19.5735 4.95045Z" fill="white"/>
</svg>
